<svg width="116" height="38" viewBox="0 0 116 38" fill="none" xmlns="http://www.w3.org/2000/svg">
<path d="M9.96777 24.5469L14.9922 7.67188H19.8848L12.458 29H9.23535L9.96777 24.5469ZM5.33887 7.67188L10.3486 24.5469L11.1104 29H7.8584L0.475586 7.67188H5.33887ZM26.5498 7.67188V29H22.1699V7.67188H26.5498ZM39.7627 7.67188V29H35.3828V7.67188H39.7627ZM46.3252 7.67188V11.1143H28.9229V7.67188H46.3252ZM65.9395 17.8379V18.8486C65.9395 20.4697 65.7197 21.9248 65.2803 23.2139C64.8408 24.5029 64.2207 25.6016 63.4199 26.5098C62.6191 27.4082 61.6621 28.0967 60.5488 28.5752C59.4453 29.0537 58.2197 29.293 56.8721 29.293C55.5342 29.293 54.3086 29.0537 53.1953 28.5752C52.0918 28.0967 51.1348 27.4082 50.3242 26.5098C49.5137 25.6016 48.8838 24.5029 48.4346 23.2139C47.9951 21.9248 47.7754 20.4697 47.7754 18.8486V17.8379C47.7754 16.207 47.9951 14.752 48.4346 13.4727C48.874 12.1836 49.4941 11.085 50.2949 10.1768C51.1055 9.26855 52.0625 8.5752 53.166 8.09668C54.2793 7.61816 55.5049 7.37891 56.8428 7.37891C58.1904 7.37891 59.416 7.61816 60.5195 8.09668C61.6328 8.5752 62.5898 9.26855 63.3906 10.1768C64.2012 11.085 64.8262 12.1836 65.2656 13.4727C65.7148 14.752 65.9395 16.207 65.9395 17.8379ZM61.501 18.8486V17.8086C61.501 16.6758 61.3984 15.6797 61.1934 14.8203C60.9883 13.9609 60.6855 13.2383 60.2852 12.6523C59.8848 12.0664 59.3965 11.627 58.8203 11.334C58.2441 11.0312 57.585 10.8799 56.8428 10.8799C56.1006 10.8799 55.4414 11.0312 54.8652 11.334C54.2988 11.627 53.8154 12.0664 53.415 12.6523C53.0244 13.2383 52.7266 13.9609 52.5215 14.8203C52.3164 15.6797 52.2139 16.6758 52.2139 17.8086V18.8486C52.2139 19.9717 52.3164 20.9678 52.5215 21.8369C52.7266 22.6963 53.0293 23.4238 53.4297 24.0195C53.8301 24.6055 54.3184 25.0498 54.8945 25.3525C55.4707 25.6553 56.1299 25.8066 56.8721 25.8066C57.6143 25.8066 58.2734 25.6553 58.8496 25.3525C59.4258 25.0498 59.9092 24.6055 60.2998 24.0195C60.6904 23.4238 60.9883 22.6963 61.1934 21.8369C61.3984 20.9678 61.501 19.9717 61.501 18.8486ZM54.8359 6.45605L57.707 1.94434H62.292L58.2637 6.45605H54.8359ZM69.1035 7.67188H77.0576C78.6885 7.67188 80.0898 7.91602 81.2617 8.4043C82.4434 8.89258 83.3516 9.61523 83.9863 10.5723C84.6211 11.5293 84.9385 12.7061 84.9385 14.1025C84.9385 15.2451 84.7432 16.2266 84.3525 17.0469C83.9717 17.8574 83.4297 18.5361 82.7266 19.083C82.0332 19.6201 81.2178 20.0498 80.2803 20.3721L78.8887 21.1045H71.9746L71.9453 17.6768H77.0869C77.8584 17.6768 78.498 17.54 79.0059 17.2666C79.5137 16.9932 79.8945 16.6123 80.1484 16.124C80.4121 15.6357 80.5439 15.0693 80.5439 14.4248C80.5439 13.7412 80.417 13.1504 80.1631 12.6523C79.9092 12.1543 79.5234 11.7734 79.0059 11.5098C78.4883 11.2461 77.8389 11.1143 77.0576 11.1143H73.498V29H69.1035V7.67188ZM81.0273 29L76.1641 19.4932L80.8076 19.4639L85.7295 28.7949V29H81.0273ZM92.9951 7.67188V29H88.6152V7.67188H92.9951ZM106.047 11.3193L100.246 29H95.5732L103.498 7.67188H106.472L106.047 11.3193ZM110.866 29L105.051 11.3193L104.582 7.67188H107.585L115.554 29H110.866ZM110.603 21.0605V24.5029H99.3379V21.0605H110.603Z" fill="url(#paint0_linear_122_251)"/>
<defs>
<linearGradient id="paint0_linear_122_251" x1="58" y1="0" x2="58" y2="38" gradientUnits="userSpaceOnUse">
<stop stop-color="white"/>
<stop offset="1" stop-color="#D9D9D9" stop-opacity="0.8"/>
</linearGradient>
</defs>
</svg>
