<svg width="220" height="123" viewBox="0 0 183 123" fill="none" xmlns="http://www.w3.org/2000/svg">
<path d="M14.7129 21.9248H19.0928C19.0049 23.3604 18.6094 24.6348 17.9062 25.748C17.2129 26.8613 16.2412 27.7305 14.9912 28.3555C13.751 28.9805 12.2568 29.293 10.5088 29.293C9.1416 29.293 7.91602 29.0586 6.83203 28.5898C5.74805 28.1113 4.82031 27.4277 4.04883 26.5391C3.28711 25.6504 2.70605 24.5762 2.30566 23.3164C1.90527 22.0566 1.70508 20.6455 1.70508 19.083V17.6035C1.70508 16.041 1.91016 14.6299 2.32031 13.3701C2.74023 12.1006 3.33594 11.0215 4.10742 10.1328C4.88867 9.24414 5.82129 8.56055 6.90527 8.08203C7.98926 7.60352 9.2002 7.36426 10.5381 7.36426C12.3154 7.36426 13.8145 7.68652 15.0352 8.33105C16.2656 8.97559 17.2178 9.86426 17.8916 10.9971C18.5752 12.1299 18.9854 13.4189 19.1221 14.8643H14.7275C14.6787 14.0049 14.5078 13.2773 14.2148 12.6816C13.9219 12.0762 13.4775 11.6221 12.8818 11.3193C12.2959 11.0068 11.5146 10.8506 10.5381 10.8506C9.80566 10.8506 9.16602 10.9873 8.61914 11.2607C8.07227 11.5342 7.61328 11.9492 7.24219 12.5059C6.87109 13.0625 6.59277 13.7656 6.40723 14.6152C6.23145 15.4551 6.14355 16.4414 6.14355 17.5742V19.083C6.14355 20.1865 6.22656 21.1582 6.39258 21.998C6.55859 22.8281 6.8125 23.5312 7.1543 24.1074C7.50586 24.6738 7.95508 25.1035 8.50195 25.3965C9.05859 25.6797 9.72754 25.8213 10.5088 25.8213C11.4268 25.8213 12.1836 25.6748 12.7793 25.3818C13.375 25.0889 13.8291 24.6543 14.1416 24.0781C14.4639 23.502 14.6543 22.7842 14.7129 21.9248ZM30.6504 11.3193L24.8496 29H20.1768L28.1016 7.67188H31.0752L30.6504 11.3193ZM35.4697 29L29.6543 11.3193L29.1855 7.67188H32.1885L40.1572 29H35.4697ZM35.2061 21.0605V24.5029H23.9414V21.0605H35.2061ZM55.8457 25.5723V29H45.1084V25.5723H55.8457ZM46.5293 7.67188V29H42.1348V7.67188H46.5293ZM72.6768 25.5723V29H61.3242V25.5723H72.6768ZM62.7598 7.67188V29H58.3652V7.67188H62.7598ZM71.1973 16.3584V19.6982H61.3242V16.3584H71.1973ZM72.6621 7.67188V11.1143H61.3242V7.67188H72.6621ZM92.5986 7.67188V29H88.2041L79.6348 14.7031V29H75.2402V7.67188H79.6348L88.2188 21.9834V7.67188H92.5986ZM102.97 29H98.3262L98.3555 25.5723H102.97C104.122 25.5723 105.094 25.3135 105.885 24.7959C106.676 24.2686 107.271 23.502 107.672 22.4961C108.082 21.4902 108.287 20.2744 108.287 18.8486V17.8086C108.287 16.7148 108.17 15.7529 107.936 14.9229C107.711 14.0928 107.374 13.3945 106.925 12.8281C106.476 12.2617 105.924 11.8369 105.27 11.5537C104.615 11.2607 103.863 11.1143 103.014 11.1143H98.2383V7.67188H103.014C104.439 7.67188 105.743 7.91602 106.925 8.4043C108.116 8.88281 109.146 9.57129 110.016 10.4697C110.885 11.3682 111.554 12.4424 112.022 13.6924C112.501 14.9326 112.74 16.3145 112.74 17.8379V18.8486C112.74 20.3623 112.501 21.7441 112.022 22.9941C111.554 24.2441 110.885 25.3184 110.016 26.2168C109.156 27.1055 108.126 27.7939 106.925 28.2822C105.733 28.7607 104.415 29 102.97 29ZM100.816 7.67188V29H96.4219V7.67188H100.816ZM124.283 11.3193L118.482 29H113.81L121.734 7.67188H124.708L124.283 11.3193ZM129.103 29L123.287 11.3193L122.818 7.67188H125.821L133.79 29H129.103ZM128.839 21.0605V24.5029H117.574V21.0605H128.839ZM121.808 6.4707L124.679 1.95898H129.264L125.235 6.4707H121.808ZM135.768 7.67188H143.722C145.353 7.67188 146.754 7.91602 147.926 8.4043C149.107 8.89258 150.016 9.61523 150.65 10.5723C151.285 11.5293 151.603 12.7061 151.603 14.1025C151.603 15.2451 151.407 16.2266 151.017 17.0469C150.636 17.8574 150.094 18.5361 149.391 19.083C148.697 19.6201 147.882 20.0498 146.944 20.3721L145.553 21.1045H138.639L138.609 17.6768H143.751C144.522 17.6768 145.162 17.54 145.67 17.2666C146.178 16.9932 146.559 16.6123 146.812 16.124C147.076 15.6357 147.208 15.0693 147.208 14.4248C147.208 13.7412 147.081 13.1504 146.827 12.6523C146.573 12.1543 146.188 11.7734 145.67 11.5098C145.152 11.2461 144.503 11.1143 143.722 11.1143H140.162V29H135.768V7.67188ZM147.691 29L142.828 19.4932L147.472 19.4639L152.394 28.7949V29H147.691ZM159.659 7.67188V29H155.279V7.67188H159.659ZM181.295 17.8379V18.8486C181.295 20.4697 181.075 21.9248 180.636 23.2139C180.196 24.5029 179.576 25.6016 178.775 26.5098C177.975 27.4082 177.018 28.0967 175.904 28.5752C174.801 29.0537 173.575 29.293 172.228 29.293C170.89 29.293 169.664 29.0537 168.551 28.5752C167.447 28.0967 166.49 27.4082 165.68 26.5098C164.869 25.6016 164.239 24.5029 163.79 23.2139C163.351 21.9248 163.131 20.4697 163.131 18.8486V17.8379C163.131 16.207 163.351 14.752 163.79 13.4727C164.229 12.1836 164.85 11.085 165.65 10.1768C166.461 9.26855 167.418 8.5752 168.521 8.09668C169.635 7.61816 170.86 7.37891 172.198 7.37891C173.546 7.37891 174.771 7.61816 175.875 8.09668C176.988 8.5752 177.945 9.26855 178.746 10.1768C179.557 11.085 180.182 12.1836 180.621 13.4727C181.07 14.752 181.295 16.207 181.295 17.8379ZM176.856 18.8486V17.8086C176.856 16.6758 176.754 15.6797 176.549 14.8203C176.344 13.9609 176.041 13.2383 175.641 12.6523C175.24 12.0664 174.752 11.627 174.176 11.334C173.6 11.0312 172.94 10.8799 172.198 10.8799C171.456 10.8799 170.797 11.0312 170.221 11.334C169.654 11.627 169.171 12.0664 168.771 12.6523C168.38 13.2383 168.082 13.9609 167.877 14.8203C167.672 15.6797 167.569 16.6758 167.569 17.8086V18.8486C167.569 19.9717 167.672 20.9678 167.877 21.8369C168.082 22.6963 168.385 23.4238 168.785 24.0195C169.186 24.6055 169.674 25.0498 170.25 25.3525C170.826 25.6553 171.485 25.8066 172.228 25.8066C172.97 25.8066 173.629 25.6553 174.205 25.3525C174.781 25.0498 175.265 24.6055 175.655 24.0195C176.046 23.4238 176.344 22.6963 176.549 21.8369C176.754 20.9678 176.856 19.9717 176.856 18.8486Z" fill="url(#paint0_linear_122_251)"/>
<path opacity="0.8" d="M84.0195 62H80.9238L80.9434 59.7148H84.0195C84.7878 59.7148 85.4355 59.5423 85.9629 59.1973C86.4902 58.8457 86.8874 58.3346 87.1543 57.6641C87.4277 56.9935 87.5645 56.1829 87.5645 55.2324V54.5391C87.5645 53.8099 87.4863 53.1686 87.3301 52.6152C87.1803 52.0618 86.9557 51.5964 86.6562 51.2188C86.3568 50.8411 85.9889 50.5579 85.5527 50.3691C85.1165 50.1738 84.6152 50.0762 84.0488 50.0762H80.8652V47.7812H84.0488C84.9993 47.7812 85.8685 47.944 86.6562 48.2695C87.4505 48.5885 88.1374 49.0475 88.7168 49.6465C89.2962 50.2454 89.7422 50.9616 90.0547 51.7949C90.3737 52.6217 90.5332 53.543 90.5332 54.5586V55.2324C90.5332 56.2415 90.3737 57.1628 90.0547 57.9961C89.7422 58.8294 89.2962 59.5456 88.7168 60.1445C88.1439 60.737 87.457 61.196 86.6562 61.5215C85.862 61.8405 84.9831 62 84.0195 62ZM82.584 47.7812V62H79.6543V47.7812H82.584ZM98.2285 50.2129L94.3613 62H91.2461L96.5293 47.7812H98.5117L98.2285 50.2129ZM101.441 62L97.5645 50.2129L97.252 47.7812H99.2539L104.566 62H101.441ZM101.266 56.707V59.002H93.7559V56.707H101.266Z" fill="url(#paint1_linear_122_251)"/>
<g filter="url(#filter0_d_122_251)">
<path d="M72.6859 99.9981C70.7596 99.9981 68.7358 99.6331 67.1497 98.754V83.2441C68.711 82.3899 70.7347 82 72.6859 82C74.6371 82 76.6131 82.365 78.1725 83.2441V89.195H74.2453V85.1456C73.7828 84.9507 73.221 84.878 72.6611 84.878C72.1011 84.878 71.5871 84.9507 71.0998 85.1456V96.8525C71.5622 97.0475 72.0992 97.1201 72.6611 97.1201C73.2229 97.1201 73.758 97.0475 74.2453 96.8525V92.805H78.1725V98.7559C76.636 99.6101 74.6122 99.9752 72.6859 100V99.9981Z" fill="#F7DD43"/>
<path d="M85.5377 99.9981C83.4642 99.9981 81.4653 99.5585 79.8791 98.6565V83.3167C81.4404 82.4395 83.4413 82 85.5377 82C87.634 82 89.5852 82.4147 91.1465 83.3167V98.6565C89.6101 99.5585 87.5863 99.9732 85.5377 99.9981ZM87.2213 85.1952C86.7588 85.0003 86.197 84.9029 85.5147 84.9029C84.8325 84.9029 84.2955 85.0003 83.8311 85.1952V96.7799C84.2936 96.9997 84.8554 97.0971 85.5147 97.0971C86.174 97.0971 86.734 96.9997 87.2213 96.7799V85.1952Z" fill="#F7DD43"/>
<path d="M97.9994 93.4127H96.9502V99.7783H92.9753V82.2198H97.9994C100.39 82.2198 102.194 82.7071 103.608 83.7066V91.9259C102.219 92.9024 100.388 93.4127 97.9994 93.4127ZM99.6582 85.243C99.2932 84.9755 98.8039 84.8532 97.9745 84.8532H96.9005V90.7793H97.9745C98.7791 90.7793 99.2664 90.657 99.6582 90.4143V85.243Z" fill="#F7DD43"/>
<path d="M111.923 99.7783V93.4127H108.997V99.7783H105.047V83.2919C106.486 82.4376 108.51 82 110.461 82C112.412 82 114.411 82.4395 115.85 83.2919V99.7783H111.923ZM111.923 85.0481C111.508 84.8532 110.996 84.7557 110.459 84.7557C109.922 84.7557 109.41 84.8532 108.995 85.0481V90.6321H111.921V85.0481H111.923Z" fill="#F7DD43"/>
</g>
<defs>
<filter id="filter0_d_122_251" x="22.5" y="59" width="138" height="72" filterUnits="userSpaceOnUse" color-interpolation-filters="sRGB">
<feFlood flood-opacity="0" result="BackgroundImageFix"/>
<feColorMatrix in="SourceAlpha" type="matrix" values="0 0 0 0 0 0 0 0 0 0 0 0 0 0 0 0 0 0 127 0" result="hardAlpha"/>
<feOffset dy="4"/>
<feGaussianBlur stdDeviation="2"/>
<feComposite in2="hardAlpha" operator="out"/>
<feColorMatrix type="matrix" values="0 0 0 0 0 0 0 0 0 0 0 0 0 0 0 0 0 0 0.25 0"/>
<feBlend mode="normal" in2="BackgroundImageFix" result="effect1_dropShadow_122_251"/>
<feBlend mode="normal" in="SourceGraphic" in2="effect1_dropShadow_122_251" result="shape"/>
</filter>
<linearGradient id="paint0_linear_122_251" x1="91.5" y1="0" x2="91.5" y2="47" gradientUnits="userSpaceOnUse">
<stop stop-color="white"/>
<stop offset="1" stop-color="#D9D9D9" stop-opacity="0.8"/>
</linearGradient>
<linearGradient id="paint1_linear_122_251" x1="91.5" y1="43" x2="91.5" y2="63" gradientUnits="userSpaceOnUse">
<stop stop-color="white"/>
<stop offset="1" stop-color="#D9D9D9" stop-opacity="0.8"/>
</linearGradient>
</defs>
</svg>
